REM MD5 3759dd856d80b354c6b1cd83bcb76099
FILE "UEFA Champions League - Season 2000-2001 (Spain).bin" BINARY
  TRACK 01 MODE2/2352
    INDEX 01 00:00:00
  TRACK 02 AUDIO
    INDEX 00 33:33:56
    INDEX 01 33:35:56
  TRACK 03 AUDIO
    INDEX 00 37:19:21
    INDEX 01 37:21:21
  TRACK 04 AUDIO
    INDEX 00 40:56:29
    INDEX 01 40:58:29
REM LEADOUT 44:33:37
